<svg width="590" height="275" viewBox="0 0 590 275" fill="none" xmlns="http://www.w3.org/2000/svg">
<path d="M105.423 220.179C95.207 220.179 86.2927 218.176 78.6806 214.169C71.0684 209.962 65.0588 204.053 60.6518 196.441C56.4451 188.829 54.3417 180.015 54.3417 169.999V30.2756H0.255371V0.828613H86.7935V169.999C86.7935 176.409 88.5964 181.517 92.2022 185.323C95.8079 188.929 100.716 190.732 106.926 190.732H158.007V220.179H105.423Z" fill="white"/>
<path d="M228.803 223.184C215.382 223.184 203.563 220.579 193.346 215.371C183.33 209.962 175.618 202.45 170.21 192.835C164.801 183.22 162.097 172.002 162.097 159.181V115.912C162.097 102.892 164.801 91.6736 170.21 82.2586C175.618 72.6433 183.33 65.2314 193.346 60.0231C203.563 54.6145 215.382 51.9102 228.803 51.9102C242.425 51.9102 254.244 54.6145 264.26 60.0231C274.276 65.2314 281.988 72.6433 287.397 82.2586C292.805 91.6736 295.51 102.892 295.51 115.912V145.359H193.346V159.181C193.346 171.401 196.351 180.716 202.361 187.126C208.571 193.536 217.485 196.741 229.104 196.741C238.519 196.741 246.131 195.139 251.94 191.934C257.749 188.528 261.355 183.62 262.757 177.21H294.909C292.505 191.233 285.293 202.451 273.274 210.864C261.255 219.077 246.431 223.184 228.803 223.184ZM264.26 125.828V115.612C264.26 103.593 261.255 94.2778 255.245 87.6672C249.236 81.0567 240.422 77.7514 228.803 77.7514C217.385 77.7514 208.571 81.0567 202.361 87.6672C196.351 94.2778 193.346 103.693 193.346 115.912V123.424L266.664 123.124L264.26 125.828Z" fill="white"/>
<path d="M359.394 223.184C342.167 223.184 328.545 218.777 318.529 209.962C308.713 200.948 303.806 188.729 303.806 173.304C303.806 157.679 309.014 145.46 319.431 136.645C330.048 127.631 344.571 123.124 363 123.124H408.974V107.799C408.974 98.785 406.169 91.7738 400.56 86.7658C394.951 81.7578 387.039 79.2538 376.822 79.2538C367.808 79.2538 360.296 81.257 354.286 85.2634C348.277 89.0695 344.771 94.1776 343.769 100.588H311.919C313.721 85.7642 320.532 73.9453 332.351 65.1313C344.37 56.3172 359.495 51.9102 377.724 51.9102C397.355 51.9102 412.88 56.9182 424.298 66.9341C435.716 76.7498 441.425 90.1712 441.425 107.198V220.179H409.875V189.83H404.466L409.875 183.821C409.875 195.84 405.268 205.455 396.053 212.667C386.838 219.678 374.619 223.184 359.394 223.184ZM369.01 198.244C380.628 198.244 390.143 195.339 397.555 189.53C405.167 183.52 408.974 175.908 408.974 166.693V145.059H363.601C355.188 145.059 348.477 147.363 343.469 151.97C338.661 156.577 336.257 162.887 336.257 170.9C336.257 179.314 339.162 186.024 344.971 191.032C350.781 195.84 358.793 198.244 369.01 198.244Z" fill="white"/>
<path d="M458.135 274.265V54.915H490.286V86.4653H497.197L490.286 93.9773C490.286 80.9565 494.293 70.7402 502.305 63.3284C510.518 55.7162 521.436 51.9102 535.058 51.9102C551.684 51.9102 564.905 57.5191 574.721 68.737C584.737 79.7546 589.745 94.8788 589.745 114.109V160.684C589.745 173.504 587.441 184.622 582.834 194.037C578.427 203.252 572.117 210.463 563.904 215.672C555.891 220.68 546.276 223.184 535.058 223.184C521.636 223.184 510.819 219.478 502.606 212.066C494.393 204.454 490.286 194.137 490.286 181.116L497.197 188.628H489.685L490.587 227.09V274.265H458.135ZM523.94 194.938C534.557 194.938 542.77 191.934 548.579 185.924C554.589 179.714 557.594 170.8 557.594 159.181V115.912C557.594 104.294 554.589 95.4797 548.579 89.4701C542.77 83.2602 534.557 80.1553 523.94 80.1553C513.724 80.1553 505.611 83.3604 499.601 89.7706C493.591 95.9805 490.587 104.694 490.587 115.912V159.181C490.587 170.399 493.591 179.213 499.601 185.624C505.611 191.834 513.724 194.938 523.94 194.938Z" fill="white"/>
</svg>
